<?xml version="1.0" encoding="UTF-8" standalone="no"?>
<!DOCTYPE svg PUBLIC "-//W3C//DTD SVG 1.1//EN" "http://www.w3.org/Graphics/SVG/1.1/DTD/svg11.dtd">
<svg width="100%" height="100%" viewBox="0 0 512 512" version="1.1" xmlns="http://www.w3.org/2000/svg" xmlns:xlink="http://www.w3.org/1999/xlink" xml:space="preserve" xmlns:serif="http://www.serif.com/" style="fill-rule:evenodd;clip-rule:evenodd;stroke-linejoin:round;stroke-miterlimit:2;">
    <g id="dark">
        <g id="book5">
            <path d="M395.617,240.547L368.023,252.317L467.697,485.945L495.291,474.172L395.618,240.547L395.617,240.547Z" style="fill:rgb(234,86,12);fill-rule:nonzero;"/>
            <path d="M383.06,211.114L383.062,211.113L355.465,222.885L360.959,235.762L388.552,223.99L383.06,211.114Z" style="fill:rgb(234,86,12);fill-rule:nonzero;"/>
            <path d="M370.502,181.68L342.908,193.453L348.402,206.33L375.996,194.557L370.502,181.68Z" style="fill:rgb(234,86,12);fill-rule:nonzero;"/>
        </g>
        <path id="book4" d="M311.725,135.69L266.449,143.814L328.274,488.311L373.55,480.187L311.725,135.69Z" style="fill:rgb(22,163,74);fill-rule:nonzero;"/>
        <path id="book3" d="M169,57L169,487L247,487L247,57L169,57ZM183,128L201,128L201,448L183,448L183,128ZM215,320L233,320L233,448L215,448L215,320Z" style="fill:rgb(59,131,246);fill-rule:nonzero;"/>
        <g id="book2">
            <rect x="89" y="441" width="62" height="46" style="fill:rgb(225,29,75);fill-rule:nonzero;"/>
            <rect x="89" y="153" width="62" height="270" style="fill:rgb(225,29,75);fill-rule:nonzero;"/>
        </g>
        <g id="book1">
            <rect x="25" y="361" width="46" height="126" style="fill:rgb(250,250,250);fill-rule:nonzero;"/>
            <rect x="25" y="313" width="46" height="30" style="fill:rgb(250,250,250);fill-rule:nonzero;"/>
            <rect x="25" y="105" width="46" height="190" style="fill:rgb(250,250,250);fill-rule:nonzero;"/>
        </g>
    </g>
</svg>
