<svg xmlns="http://www.w3.org/2000/svg" xmlns:xlink="http://www.w3.org/1999/xlink" width="100%" height="100%" version="1.1" viewBox="0 0 228 120" xml:space="preserve" style="fill-rule:evenodd;clip-rule:evenodd;stroke-linejoin:round;stroke-miterlimit:2"><rect width="228" height="120" x="0" y="0" style="fill:#fefefe;fill-rule:nonzero"/><path d="M61,38C61,36.896 60.104,36 59,36L31,36C29.896,36 29,36.896 29,38L29,105C29,106.104 29.896,107 31,107L59,107C60.104,107 61,106.104 61,105L61,38Z" style="fill:#f4f4f5"/><path d="M215,56C215,54.896 214.104,54 213,54L73,54C71.896,54 71,54.896 71,56L71,105C71,106.104 71.896,107 73,107L213,107C214.104,107 215,106.104 215,105L215,56Z" style="fill:#f4f4f5"/><rect width="228" height="23" x="0" y="0" style="fill:#f4f4f5;fill-opacity:.6;fill-rule:nonzero"/><path d="M45,12C45,10.344 43.656,9 42,9L16,9C14.344,9 13,10.344 13,12C13,13.656 14.344,15 16,15L42,15C43.656,15 45,13.656 45,12Z" style="fill:#d1d5da"/><path d="M119,39C119,37.344 117.656,36 116,36L74,36C72.344,36 71,37.344 71,39C71,40.656 72.344,42 74,42L116,42C117.656,42 119,40.656 119,39Z" style="fill:#d1d5da"/><g><path d="M140,62.5C140,62.224 137.311,62 134,62L82,62C78.689,62 76,62.224 76,62.5L76,67.5C76,67.776 78.689,68 82,68L134,68C137.311,68 140,67.776 140,67.5L140,62.5Z" style="fill:#34d058" transform="matrix(0.5,0,0,6,38,-310)"/></g><path d="M216,37C216,36.448 215.552,36 215,36L211,36C210.448,36 210,36.448 210,37L210,41C210,41.552 210.448,42 211,42L215,42C215.552,42 216,41.552 216,41L216,37Z" style="fill:#d73a49"/><path d="M208,37C208,36.448 207.552,36 207,36L203,36C202.448,36 202,36.448 202,37L202,41C202,41.552 202.448,42 203,42L207,42C207.552,42 208,41.552 208,41L208,37Z" style="fill:#34d058"/><path d="M223,12C223,10.344 221.656,9 220,9L178,9C176.344,9 175,10.344 175,12C175,13.656 176.344,15 178,15L220,15C221.656,15 223,13.656 223,12Z" style="fill:#d1d5da"/></svg>